HIERARCHY
ROOT Hips
{
	OFFSET 0.000000 0.000000 0.000000
	CHANNELS 6 Xposition Yposition Zposition Xrotation Yrotation Zrotation
	JOINT LeftUpLeg_virtual
	{
		OFFSET 0.000000 0.000000 0.000000
		CHANNELS 3 Xrotation Yrotation Zrotation
		JOINT LeftUpLeg
		{
			OFFSET 15.427100 -6.655098 0.678600
			CHANNELS 3 Xrotation Yrotation Zrotation
			JOINT LeftLeg
			{
				OFFSET 4.081073 -39.591068 13.024000
				CHANNELS 3 Xrotation Yrotation Zrotation
				JOINT LeftFoot
				{
					OFFSET -4.081074 -37.707932 -15.979700
					CHANNELS 3 Xrotation Yrotation Zrotation
					JOINT LeftToeBase
					{
						OFFSET 5.346399 -15.068900 20.645000
						CHANNELS 3 Xrotation Yrotation Zrotation
						JOINT LeftToe_End
						{
							OFFSET 2.754700 0.931300 11.300900
							CHANNELS 3 Xrotation Yrotation Zrotation
							End Site
							{
								OFFSET 0 0 0
							}
						}
					}
				}
			}
		}
	}
	JOINT RightUpLeg_virtual
	{
		OFFSET 0.000000 0.000000 0.000000
		CHANNELS 3 Xrotation Yrotation Zrotation
		JOINT RightUpLeg
		{
			OFFSET -15.569500 -6.655098 0.678600
			CHANNELS 3 Xrotation Yrotation Zrotation
			JOINT RightLeg
			{
				OFFSET -4.081825 -39.591045 13.023800
				CHANNELS 3 Xrotation Yrotation Zrotation
				JOINT RightFoot
				{
					OFFSET 4.081824 -37.707954 -15.979600
					CHANNELS 3 Xrotation Yrotation Zrotation
					JOINT RightToeBase
					{
						OFFSET -5.346400 -15.068900 20.645000
						CHANNELS 3 Xrotation Yrotation Zrotation
						JOINT RightToe_End
						{
							OFFSET -2.754700 0.931300 11.300900
							CHANNELS 3 Xrotation Yrotation Zrotation
							End Site
							{
								OFFSET 0 0 0
							}
						}
					}
				}
			}
		}
	}
	JOINT Spine_virtual
	{
		OFFSET 0.000000 0.000000 0.000000
		CHANNELS 3 Xrotation Yrotation Zrotation
		JOINT Spine
		{
			OFFSET -0.279200 12.230698 -2.892100
			CHANNELS 3 Xrotation Yrotation Zrotation
			JOINT Spine1
			{
				OFFSET -0.232667 10.192268 -1.242267
				CHANNELS 3 Xrotation Yrotation Zrotation
				JOINT Spine1_split
				{
					OFFSET -0.232667 10.192268 -1.242267
					CHANNELS 3 Xrotation Yrotation Zrotation
					JOINT Spine2
					{
						OFFSET -0.232667 10.192268 -1.242267
						CHANNELS 3 Xrotation Yrotation Zrotation
						JOINT Neck_virtual
						{
							OFFSET 0.000000 0.000000 0.000000
							CHANNELS 3 Xrotation Yrotation Zrotation
							JOINT Neck
							{
								OFFSET -0.418800 17.814194 8.416900
								CHANNELS 3 Xrotation Yrotation Zrotation
								JOINT Head
								{
									OFFSET 0.000000 7.031097 3.806800
									CHANNELS 3 Xrotation Yrotation Zrotation
									JOINT HeadTop_End
									{
										OFFSET 0.000000 24.646606 12.978600
										CHANNELS 3 Xrotation Yrotation Zrotation
										End Site
										{
											OFFSET 0 0 0
										}
									}
								}
							}
						}
						JOINT LeftShoulder_virtual
						{
							OFFSET 0.000000 0.000000 0.000000
							CHANNELS 3 Xrotation Yrotation Zrotation
							JOINT LeftShoulder
							{
								OFFSET 8.476499 7.247704 -3.868750
								CHANNELS 3 Xrotation Yrotation Zrotation
								JOINT LeftShoulder_split
								{
									OFFSET 8.476499 7.247704 -3.868750
									CHANNELS 3 Xrotation Yrotation Zrotation
									JOINT LeftArm
									{
										OFFSET 9.308998 -2.777710 0.208600
										CHANNELS 3 Xrotation Yrotation Zrotation
										JOINT LeftForeArm
										{
											OFFSET 29.972298 0.000000 0.000000
											CHANNELS 3 Xrotation Yrotation Zrotation
											JOINT LeftHand
											{
												OFFSET 26.026505 0.000000 0.000000
												CHANNELS 3 Xrotation Yrotation Zrotation
												End Site
												{
													OFFSET 0 0 0
												}
											}
										}
									}
								}
							}
						}
						JOINT RightShoulder_virtual
						{
							OFFSET 0.000000 0.000000 0.000000
							CHANNELS 3 Xrotation Yrotation Zrotation
							JOINT RightShoulder
							{
								OFFSET -7.570500 7.247704 -3.868750
								CHANNELS 3 Xrotation Yrotation Zrotation
								JOINT RightShoulder_split
								{
									OFFSET -7.570500 7.247704 -3.868750
									CHANNELS 3 Xrotation Yrotation Zrotation
									JOINT RightArm
									{
										OFFSET -9.308998 -2.777710 0.208500
										CHANNELS 3 Xrotation Yrotation Zrotation
										JOINT RightForeArm
										{
											OFFSET -29.972300 0.000000 0.000000
											CHANNELS 3 Xrotation Yrotation Zrotation
											JOINT RightHand
											{
												OFFSET -26.026505 0.000000 0.000000
												CHANNELS 3 Xrotation Yrotation Zrotation
												End Site
												{
													OFFSET 0 0 0
												}
											}
										}
									}
								}
							}
						}
					}
				}
			}
		}
	}
}
MOTION
Frames: 5
Frame Time: 0.03333333
2.270344 70.070374 2.279640 0.000000 0.000000 0.000000 29.486333 -58.603194 29.665745 -61.992354 21.611262 30.444359 44.991235 -19.155727 -0.804004 -1.604228 3.826296 -10.633539 -5.422601 -6.451114 0.639625 0.000000 0.000000 0.000000 24.812858 -55.261247 26.705157 -36.980400 4.024887 -37.882732 52.517475 6.264330 -2.442313 -32.534947 -0.040405 26.148138 0.062728 2.924747 0.335074 0.000000 0.000000 0.000000 13.538154 -43.956717 18.129772 3.856366 10.820117 -0.493831 5.839116 8.838421 -4.091651 2.292219 -3.437950 2.033273 0.000000 0.000000 0.000000 -9.765955 8.508905 -2.725623 -20.694483 -9.124785 3.368231 3.400077 4.641096 -6.247942 0.000000 0.000000 0.000000 -8.093559 7.865120 -0.787290 2.095054 -24.466615 3.719047 -1.601478 2.636073 -4.164531 4.129324 20.799570 -59.667966 -34.410377 -59.841739 -33.919928 0.000000 0.000000 0.000000 -9.734783 8.313537 -1.731465 -0.705384 6.750484 3.066248 7.250469 3.715587 9.620320 15.512230 -10.948097 42.547977 -40.011398 54.622239 38.176072 0.000000 0.000000 0.000000 
1.372061 70.021332 2.101955 0.000000 0.000000 0.000000 31.391621 -58.505030 30.954257 -62.246984 21.785812 30.345458 45.234420 -19.964056 -0.045997 -1.528687 2.994864 -11.443945 -5.417227 -6.595866 1.321402 0.000000 0.000000 0.000000 26.765379 -54.558742 27.842894 -37.455528 4.619247 -36.896900 53.779656 6.620617 -3.119596 -32.083540 -0.754607 27.961049 -1.302593 2.824220 0.322156 0.000000 0.000000 0.000000 15.853617 -44.305668 20.181288 4.220645 9.285518 -0.030887 6.515464 7.422837 -3.755438 4.223613 -5.273344 3.432854 0.000000 0.000000 0.000000 -9.070507 7.403592 -2.348058 -20.381950 -7.823297 4.056912 2.729183 4.997032 -4.445198 0.000000 0.000000 0.000000 -7.717431 6.569655 -0.809060 1.869298 -23.935961 3.096767 -0.521264 -1.566112 -2.900841 8.226005 24.017636 -58.094891 -28.902461 -54.898690 -28.430224 0.000000 0.000000 0.000000 -9.792356 7.111718 -1.479773 -0.479353 7.061360 4.430864 5.368954 1.859605 9.014863 13.976725 -13.773835 43.802898 -47.865973 59.548526 45.493523 0.000000 0.000000 0.000000 
-0.382931 70.054672 2.093922 0.000000 0.000000 0.000000 33.758866 -57.219544 32.836507 -62.770531 21.501359 29.772859 44.982250 -20.237547 0.600577 -1.595858 2.849412 -12.369590 -5.842306 -6.706817 1.950358 0.000000 0.000000 0.000000 29.697895 -53.054577 30.002794 -37.908363 5.355450 -35.768738 54.691510 6.315229 -4.059804 -33.257328 -2.523752 28.414828 -0.087079 2.816299 0.551579 0.000000 0.000000 0.000000 20.172291 -43.873218 23.656483 5.027908 6.376020 0.775505 7.768725 4.100233 -3.419802 4.080999 -4.439162 3.903830 0.000000 0.000000 0.000000 -7.804327 4.394997 -2.193035 -19.272420 -6.524900 5.648636 0.553529 5.051937 -1.158610 0.000000 0.000000 0.000000 -6.514367 3.470140 -1.234445 2.021180 -22.493042 3.015982 1.140029 -6.360674 -0.642654 10.682468 28.207571 -55.598208 -20.980476 -48.467722 -20.787503 0.000000 0.000000 0.000000 -8.903877 3.916831 -1.753888 -0.488504 6.732883 6.585734 5.246839 1.583679 9.177288 9.775855 -15.974754 42.716287 -70.280652 65.665234 67.956107 0.000000 0.000000 0.000000 
-2.578478 70.128197 2.238796 0.000000 0.000000 0.000000 36.210682 -54.906238 34.949422 -63.213544 20.976243 28.732628 44.130563 -19.804183 1.001624 -1.749566 3.432760 -12.903906 -6.629196 -6.749767 2.256085 0.000000 0.000000 0.000000 32.688240 -50.896859 32.568138 -38.550732 6.070008 -34.786218 55.173903 5.585182 -5.176403 -35.342568 -4.949639 28.166954 2.773471 2.937920 0.892540 0.000000 0.000000 0.000000 25.657553 -42.429207 27.669421 6.418859 2.647072 1.652894 9.626305 -0.305174 -3.079221 2.166679 -2.366963 3.564747 0.000000 0.000000 0.000000 -5.955818 0.171722 -2.286760 -17.625462 -5.143744 7.193488 -2.731892 4.249508 2.877441 0.000000 0.000000 0.000000 -4.366356 -0.767025 -1.857976 2.606389 -20.811747 3.515344 2.306468 -9.884073 1.045093 9.450090 32.367495 -51.003000 -13.386517 -41.050171 -13.528425 0.000000 0.000000 0.000000 -6.905415 -0.449823 -2.281439 -0.572367 6.256282 9.542867 6.340789 2.317038 9.509383 4.332950 -16.521208 39.056856 -96.241183 66.472904 94.502730 0.000000 0.000000 0.000000 
-4.888225 70.236565 2.512680 0.000000 0.000000 0.000000 38.260971 -51.774251 36.796678 -63.453974 20.383508 27.467908 42.850489 -19.022663 1.205208 -1.906430 4.454399 -13.184382 -7.167438 -6.730874 2.118529 0.000000 0.000000 0.000000 35.319304 -48.108369 35.042327 -39.166238 6.546779 -34.187078 55.077105 5.009788 -6.474507 -37.743998 -7.442355 28.318608 4.506554 3.136137 1.206096 0.000000 0.000000 0.000000 30.883745 -40.385788 31.331434 8.369993 -1.187688 2.395522 12.284612 -4.721397 -2.694595 0.684594 -0.859313 2.296905 0.000000 0.000000 0.000000 -3.473549 -4.260342 -2.535999 -15.623428 -3.752336 7.853814 -6.215829 2.553916 6.587620 0.000000 0.000000 0.000000 -1.281674 -5.112615 -2.442044 3.507196 -19.733801 4.364438 3.654325 -11.637054 2.489612 3.402837 34.872210 -43.899033 -6.981403 -32.975679 -7.586822 0.000000 0.000000 0.000000 -3.700630 -4.869476 -2.778959 -0.658309 6.029300 13.177953 7.733138 3.451664 9.593859 -1.094821 -15.114606 34.002816 -106.811612 65.218403 106.025450 0.000000 0.000000 0.000000 
